<?xml version="1.0" encoding="UTF-8" standalone="no"?>
<!-- Created with Inkscape (http://www.inkscape.org/) -->

<svg
   width="32"
   height="32"
   viewBox="0 0 32 32"
   version="1.1"
   id="svg1"
   xmlns="http://www.w3.org/2000/svg"
   xmlns:svg="http://www.w3.org/2000/svg">
  <defs
     id="defs1" />
  <g
     id="layer1">
    <circle
       style="fill:#ffffff;fill-opacity:1;stroke:#838181;stroke-width:1.433;stroke-linecap:round;stroke-linejoin:round;stroke-dasharray:none;stroke-opacity:1"
       id="path142"
       cx="16"
       cy="16"
       r="14.118076" />
    <path
       id="path1"
       style="fill:#989898;fill-opacity:1;stroke:none;stroke-width:1.18416;stroke-linecap:round;stroke-linejoin:round;stroke-opacity:1"
       d="M 14.822266,4.4414062 13.064453,7.5839844 A 8.7788372,8.9301968 0 0 0 12.142578,7.9785156 L 8.6582031,6.9941406 7.8339844,7.8339844 6.9941406,8.6582031 8.0175781,12.28125 a 8.7788372,8.9301968 0 0 0 -0.2792969,0.697266 l -3.296875,1.84375 0.00977,1.177734 -0.00977,1.177734 3.296875,1.84375 a 8.7788372,8.9301968 0 0 0 0.2792969,0.697266 l -1.0234375,3.623047 0.8398438,0.824219 0.8242187,0.839843 3.4843749,-0.984375 a 8.7788372,8.9301968 0 0 0 0.921875,0.394532 h 0.002 l 1.75586,3.142578 1.177734,-0.0098 1.177734,0.0098 1.75586,-3.142578 a 8.7788372,8.9301968 0 0 1 0.002,0 8.7788372,8.9301968 0 0 0 0.921875,-0.394532 l 3.484375,0.984375 0.824219,-0.839843 0.839843,-0.824219 -1.023437,-3.623047 a 8.7788372,8.9301968 0 0 0 0.279297,-0.697266 L 27.558594,17.177734 27.548828,16 l 0.0098,-1.177734 -3.296875,-1.84375 A 8.7788372,8.9301968 0 0 0 23.982422,12.28125 L 25.005859,8.6582031 24.166016,7.8339844 23.341797,6.9941406 19.857422,7.9785156 A 8.7788372,8.9301968 0 0 0 18.933594,7.5839844 L 17.177734,4.4414062 16,4.4511719 Z M 16,9.5136719 a 6.4861226,6.4861226 0 0 1 1.677734,0.2207031 6.4861226,6.4861226 0 0 1 0.002,0 6.4861226,6.4861226 0 0 1 2.90625,1.679687 6.4861226,6.4861226 0 0 1 0.560546,0.636719 6.4861226,6.4861226 0 0 1 0.470704,0.705078 6.4861226,6.4861226 0 0 1 0.648437,1.564453 A 6.4861226,6.4861226 0 0 1 22.486328,16 6.4861226,6.4861226 0 0 1 22.265625,17.679688 6.4861226,6.4861226 0 0 1 21.146484,19.949219 6.4861226,6.4861226 0 0 1 19.949219,21.146484 6.4861226,6.4861226 0 0 1 17.679688,22.265625 6.4861226,6.4861226 0 0 1 16,22.486328 a 6.4861226,6.4861226 0 0 1 -1.679688,-0.220703 6.4861226,6.4861226 0 0 1 -1.564453,-0.648437 6.4861226,6.4861226 0 0 1 -0.705078,-0.470704 6.4861226,6.4861226 0 0 1 -0.636719,-0.560546 6.4861226,6.4861226 0 0 1 -1.03125,-1.341797 6.4861226,6.4861226 0 0 1 0,-0.002 6.4861226,6.4861226 0 0 1 -0.648437,-1.5625 6.4861226,6.4861226 0 0 1 0,-0.002 A 6.4861226,6.4861226 0 0 1 9.5136719,16 a 6.4861226,6.4861226 0 0 1 0.0625,-0.888672 6.4861226,6.4861226 0 0 1 0.041016,-0.203125 6.4861226,6.4861226 0 0 1 0.1171875,-0.587891 6.4861226,6.4861226 0 0 1 0.035156,-0.123046 6.4861226,6.4861226 0 0 1 0,-0.002 6.4861226,6.4861226 0 0 1 0.2753906,-0.761718 6.4861226,6.4861226 0 0 1 0.101562,-0.203125 6.4861226,6.4861226 0 0 1 0.236328,-0.47461 6.4861226,6.4861226 0 0 1 0.0332,-0.04883 6.4861226,6.4861226 0 0 1 0.199218,-0.300781 6.4861226,6.4861226 0 0 1 0.238282,-0.355469 6.4861226,6.4861226 0 0 1 0.03711,-0.04297 6.4861226,6.4861226 0 0 1 0.224609,-0.255859 6.4861226,6.4861226 0 0 1 0.332032,-0.369141 6.4861226,6.4861226 0 0 1 0.24414,-0.214843 6.4861226,6.4861226 0 0 1 0.402344,-0.34375 6.4861226,6.4861226 0 0 1 0.214844,-0.142578 6.4861226,6.4861226 0 0 1 0.447265,-0.298829 6.4861226,6.4861226 0 0 1 0.02539,-0.01172 6.4861226,6.4861226 0 0 1 0.515625,-0.25586 6.4861226,6.4861226 0 0 1 0.220703,-0.107422 6.4861226,6.4861226 0 0 1 0.0098,-0.0039 6.4861226,6.4861226 0 0 1 0.474609,-0.1621091 6.4861226,6.4861226 0 0 1 0.318359,-0.1074219 6.4861226,6.4861226 0 0 1 0.01953,-0.00391 6.4861226,6.4861226 0 0 1 0.191406,-0.037109 6.4861226,6.4861226 0 0 1 0.634766,-0.125 A 6.4861226,6.4861226 0 0 1 16,9.5136719 Z m 0,2.8535161 A 3.6333051,3.6333051 0 0 0 12.367188,16 3.6333051,3.6333051 0 0 0 16,19.632812 3.6333051,3.6333051 0 0 0 19.632812,16 3.6333051,3.6333051 0 0 0 16,12.367188 Z" />
  </g>
</svg>
